<mxfile host="app.diagrams.net" modified="2022-12-08T08:56:12.459Z" agent="5.0 (Macintosh; Intel Mac OS X 10_15_7) AppleWebKit/537.36 (KHTML, like Gecko) Chrome/107.0.0.0 Safari/537.36" etag="wanQet5s0hYNLbUIQ2kP" version="20.6.0" type="github">
  <diagram id="02rL1zvzQSaPiT-v1s-N" name="페이지-1">
    <mxGraphModel dx="1168" dy="747" grid="1" gridSize="10" guides="1" tooltips="1" connect="1" arrows="1" fold="1" page="1" pageScale="1" pageWidth="827" pageHeight="1169" math="0" shadow="0">
      <root>
        <mxCell id="0" />
        <mxCell id="1" parent="0" />
        <mxCell id="lHBofT9Xxs7Trdr80c8w-31" value="" style="edgeStyle=orthogonalEdgeStyle;rounded=0;orthogonalLoop=1;jettySize=auto;html=1;fontSize=22;exitX=0.875;exitY=0.5;exitDx=0;exitDy=0;exitPerimeter=0;" parent="1" source="lHBofT9Xxs7Trdr80c8w-6" target="lHBofT9Xxs7Trdr80c8w-2" edge="1">
          <mxGeometry relative="1" as="geometry" />
        </mxCell>
        <mxCell id="lHBofT9Xxs7Trdr80c8w-21" value="" style="ellipse;whiteSpace=wrap;html=1;fillColor=none;dashed=1;" parent="1" vertex="1">
          <mxGeometry x="690" y="230" width="190" height="220" as="geometry" />
        </mxCell>
        <mxCell id="lHBofT9Xxs7Trdr80c8w-14" value="" style="ellipse;whiteSpace=wrap;html=1;fillColor=none;dashed=1;" parent="1" vertex="1">
          <mxGeometry x="451.5" y="250" width="177" height="200" as="geometry" />
        </mxCell>
        <mxCell id="lHBofT9Xxs7Trdr80c8w-2" value="FTP Server&lt;br&gt;(&lt;strong style=&quot;font-size: 22px; color: rgb(36, 41, 47); font-family: -apple-system, &amp;quot;system-ui&amp;quot;, &amp;quot;Segoe UI&amp;quot;, Roboto, Oxygen, Ubuntu, &amp;quot;Fira Sans&amp;quot;, &amp;quot;Droid Sans&amp;quot;, &amp;quot;Helvetica Neue&amp;quot;, sans-serif; background-color: rgb(255, 255, 255);&quot;&gt;&lt;a style=&quot;color: rgb(75, 151, 89); text-decoration: var(--aui-link-decoration);&quot; rel=&quot;nofollow&quot; class=&quot;external-link&quot; href=&quot;https://ntree.navercorp.com/public/cmdb/ci-view.html?host=acdnftp001.nmv&quot;&gt;&lt;font style=&quot;font-size: 9px;&quot;&gt;acdnftp001&lt;/font&gt;&lt;/a&gt;)&lt;/strong&gt;" style="rounded=0;whiteSpace=wrap;html=1;" parent="1" vertex="1">
          <mxGeometry x="475" y="310" width="130" height="60" as="geometry" />
        </mxCell>
        <mxCell id="lHBofT9Xxs7Trdr80c8w-6" value="akamai" style="ellipse;shape=cloud;whiteSpace=wrap;html=1;" parent="1" vertex="1">
          <mxGeometry x="260" y="300" width="120" height="80" as="geometry" />
        </mxCell>
        <mxCell id="lHBofT9Xxs7Trdr80c8w-12" value="Python&lt;br&gt;&lt;strong style=&quot;font-size: 22px; color: rgb(36, 41, 47); font-family: -apple-system, &amp;quot;system-ui&amp;quot;, &amp;quot;Segoe UI&amp;quot;, Roboto, Oxygen, Ubuntu, &amp;quot;Fira Sans&amp;quot;, &amp;quot;Droid Sans&amp;quot;, &amp;quot;Helvetica Neue&amp;quot;, sans-serif; background-color: rgb(255, 255, 255);&quot;&gt;&lt;/strong&gt;" style="rounded=0;whiteSpace=wrap;html=1;" parent="1" vertex="1">
          <mxGeometry x="730" y="314" width="120" height="60" as="geometry" />
        </mxCell>
        <mxCell id="lHBofT9Xxs7Trdr80c8w-13" value="&lt;font style=&quot;font-size: 22px;&quot;&gt;수집&lt;/font&gt;" style="text;html=1;align=center;verticalAlign=middle;resizable=0;points=[];autosize=1;strokeColor=none;fillColor=none;" parent="1" vertex="1">
          <mxGeometry x="510" y="170" width="60" height="40" as="geometry" />
        </mxCell>
        <mxCell id="lHBofT9Xxs7Trdr80c8w-20" value="&lt;span style=&quot;font-size: 22px;&quot;&gt;가공&lt;/span&gt;" style="text;html=1;align=center;verticalAlign=middle;resizable=0;points=[];autosize=1;strokeColor=none;fillColor=none;" parent="1" vertex="1">
          <mxGeometry x="745" y="170" width="60" height="40" as="geometry" />
        </mxCell>
        <mxCell id="lHBofT9Xxs7Trdr80c8w-27" value="" style="ellipse;whiteSpace=wrap;html=1;fillColor=none;dashed=1;" parent="1" vertex="1">
          <mxGeometry x="930" y="220" width="190" height="220" as="geometry" />
        </mxCell>
        <mxCell id="lHBofT9Xxs7Trdr80c8w-28" value="&lt;span style=&quot;font-size: 22px;&quot;&gt;적재&lt;/span&gt;" style="text;html=1;align=center;verticalAlign=middle;resizable=0;points=[];autosize=1;strokeColor=none;fillColor=none;" parent="1" vertex="1">
          <mxGeometry x="995" y="160" width="60" height="40" as="geometry" />
        </mxCell>
        <mxCell id="lHBofT9Xxs7Trdr80c8w-29" value="" style="ellipse;whiteSpace=wrap;html=1;fillColor=none;dashed=1;" parent="1" vertex="1">
          <mxGeometry x="1180" y="220" width="190" height="220" as="geometry" />
        </mxCell>
        <mxCell id="lHBofT9Xxs7Trdr80c8w-30" value="&lt;span style=&quot;font-size: 22px;&quot;&gt;조회&lt;/span&gt;" style="text;html=1;align=center;verticalAlign=middle;resizable=0;points=[];autosize=1;strokeColor=none;fillColor=none;" parent="1" vertex="1">
          <mxGeometry x="1245" y="160" width="60" height="40" as="geometry" />
        </mxCell>
        <mxCell id="lHBofT9Xxs7Trdr80c8w-32" value="" style="edgeStyle=orthogonalEdgeStyle;rounded=0;orthogonalLoop=1;jettySize=auto;html=1;fontSize=22;exitX=0.5;exitY=1;exitDx=0;exitDy=0;entryX=0.5;entryY=1;entryDx=0;entryDy=0;" parent="1" source="lHBofT9Xxs7Trdr80c8w-2" target="lHBofT9Xxs7Trdr80c8w-33" edge="1">
          <mxGeometry relative="1" as="geometry">
            <mxPoint x="605" y="450" as="sourcePoint" />
            <mxPoint x="730" y="450" as="targetPoint" />
          </mxGeometry>
        </mxCell>
        <mxCell id="lHBofT9Xxs7Trdr80c8w-33" value="Object Storage" style="rounded=0;whiteSpace=wrap;html=1;" parent="1" vertex="1">
          <mxGeometry x="965" y="300" width="120" height="60" as="geometry" />
        </mxCell>
        <mxCell id="lHBofT9Xxs7Trdr80c8w-34" value="" style="edgeStyle=orthogonalEdgeStyle;rounded=0;orthogonalLoop=1;jettySize=auto;html=1;fontSize=22;exitX=1;exitY=0.5;exitDx=0;exitDy=0;" parent="1" edge="1">
          <mxGeometry relative="1" as="geometry">
            <mxPoint x="850" y="340" as="sourcePoint" />
            <mxPoint x="975" y="340" as="targetPoint" />
          </mxGeometry>
        </mxCell>
        <mxCell id="lHBofT9Xxs7Trdr80c8w-35" value="TBD" style="rounded=0;whiteSpace=wrap;html=1;" parent="1" vertex="1">
          <mxGeometry x="1215" y="300" width="120" height="60" as="geometry" />
        </mxCell>
        <mxCell id="lHBofT9Xxs7Trdr80c8w-44" value="" style="endArrow=none;dashed=1;html=1;rounded=0;fontSize=9;" parent="1" edge="1">
          <mxGeometry width="50" height="50" relative="1" as="geometry">
            <mxPoint x="1630" y="520" as="sourcePoint" />
            <mxPoint x="4" y="520" as="targetPoint" />
          </mxGeometry>
        </mxCell>
        <mxCell id="lHBofT9Xxs7Trdr80c8w-46" value="AbuseVid.py" style="rounded=0;whiteSpace=wrap;html=1;" parent="1" vertex="1">
          <mxGeometry x="460" y="610" width="255" height="110" as="geometry" />
        </mxCell>
        <mxCell id="lHBofT9Xxs7Trdr80c8w-47" value="CheckVid.py" style="rounded=0;whiteSpace=wrap;html=1;" parent="1" vertex="1">
          <mxGeometry x="460" y="815" width="260" height="110" as="geometry" />
        </mxCell>
        <mxCell id="lHBofT9Xxs7Trdr80c8w-49" value="abuse_vid.csv" style="rounded=1;whiteSpace=wrap;html=1;fontSize=13;fillColor=none;" parent="1" vertex="1">
          <mxGeometry x="787.5" y="635" width="142.5" height="60" as="geometry" />
        </mxCell>
        <mxCell id="lHBofT9Xxs7Trdr80c8w-50" value="&lt;span style=&quot;font-size: 12px;&quot;&gt;CDN Logs&lt;/span&gt;" style="rounded=1;whiteSpace=wrap;html=1;fontSize=13;fillColor=none;" parent="1" vertex="1">
          <mxGeometry x="270" y="630" width="120" height="60" as="geometry" />
        </mxCell>
        <mxCell id="lHBofT9Xxs7Trdr80c8w-51" value="abuse_vid.csv" style="rounded=1;whiteSpace=wrap;html=1;fontSize=13;fillColor=none;" parent="1" vertex="1">
          <mxGeometry x="248.75" y="840" width="142.5" height="60" as="geometry" />
        </mxCell>
        <mxCell id="lHBofT9Xxs7Trdr80c8w-52" value="delete_vid.csv" style="rounded=1;whiteSpace=wrap;html=1;fontSize=13;fillColor=none;" parent="1" vertex="1">
          <mxGeometry x="787.5" y="840" width="142.5" height="60" as="geometry" />
        </mxCell>
        <mxCell id="lHBofT9Xxs7Trdr80c8w-54" value="UMon Delete API" style="rounded=0;whiteSpace=wrap;html=1;" parent="1" vertex="1">
          <mxGeometry x="503.75" y="1000" width="167.5" height="70" as="geometry" />
        </mxCell>
        <mxCell id="lHBofT9Xxs7Trdr80c8w-55" value="" style="edgeStyle=orthogonalEdgeStyle;rounded=0;orthogonalLoop=1;jettySize=auto;html=1;fontSize=22;exitX=0.875;exitY=0.5;exitDx=0;exitDy=0;exitPerimeter=0;startArrow=none;entryX=0;entryY=0.5;entryDx=0;entryDy=0;" parent="1" edge="1" target="lHBofT9Xxs7Trdr80c8w-12" source="NOlfnEjTBb-GQBr9GyWI-7">
          <mxGeometry relative="1" as="geometry">
            <mxPoint x="605" y="339.58" as="sourcePoint" />
            <mxPoint x="715" y="339.58" as="targetPoint" />
          </mxGeometry>
        </mxCell>
        <mxCell id="lHBofT9Xxs7Trdr80c8w-57" value="" style="endArrow=classic;html=1;rounded=0;fontSize=13;exitX=0.338;exitY=-0.052;exitDx=0;exitDy=0;exitPerimeter=0;entryX=0.386;entryY=1.006;entryDx=0;entryDy=0;entryPerimeter=0;" parent="1" source="lHBofT9Xxs7Trdr80c8w-54" target="lHBofT9Xxs7Trdr80c8w-47" edge="1">
          <mxGeometry width="50" height="50" relative="1" as="geometry">
            <mxPoint x="578.5" y="975" as="sourcePoint" />
            <mxPoint x="628.5" y="925" as="targetPoint" />
          </mxGeometry>
        </mxCell>
        <mxCell id="lHBofT9Xxs7Trdr80c8w-58" value="" style="endArrow=classic;html=1;rounded=0;fontSize=13;exitX=0.658;exitY=0.994;exitDx=0;exitDy=0;exitPerimeter=0;entryX=0.75;entryY=0;entryDx=0;entryDy=0;" parent="1" source="lHBofT9Xxs7Trdr80c8w-47" target="lHBofT9Xxs7Trdr80c8w-54" edge="1">
          <mxGeometry width="50" height="50" relative="1" as="geometry">
            <mxPoint x="390" y="1100" as="sourcePoint" />
            <mxPoint x="440" y="1050" as="targetPoint" />
          </mxGeometry>
        </mxCell>
        <mxCell id="lHBofT9Xxs7Trdr80c8w-59" value="&lt;span style=&quot;font-size: 22px;&quot;&gt;가공 프로세스&lt;/span&gt;" style="text;html=1;align=center;verticalAlign=middle;resizable=0;points=[];autosize=1;strokeColor=none;fillColor=none;" parent="1" vertex="1">
          <mxGeometry x="20" y="550" width="140" height="40" as="geometry" />
        </mxCell>
        <mxCell id="lHBofT9Xxs7Trdr80c8w-61" value="" style="endArrow=classic;html=1;rounded=0;fontSize=13;exitX=1;exitY=0.5;exitDx=0;exitDy=0;" parent="1" source="lHBofT9Xxs7Trdr80c8w-50" edge="1">
          <mxGeometry width="50" height="50" relative="1" as="geometry">
            <mxPoint x="570.3649999999998" y="1006.3600000000001" as="sourcePoint" />
            <mxPoint x="460" y="665" as="targetPoint" />
          </mxGeometry>
        </mxCell>
        <mxCell id="lHBofT9Xxs7Trdr80c8w-62" value="" style="endArrow=classic;html=1;rounded=0;fontSize=13;exitX=1;exitY=0.5;exitDx=0;exitDy=0;" parent="1" edge="1">
          <mxGeometry width="50" height="50" relative="1" as="geometry">
            <mxPoint x="715" y="662.5" as="sourcePoint" />
            <mxPoint x="790" y="668" as="targetPoint" />
          </mxGeometry>
        </mxCell>
        <mxCell id="lHBofT9Xxs7Trdr80c8w-64" value="" style="endArrow=classic;html=1;rounded=0;fontSize=13;exitX=1;exitY=0.5;exitDx=0;exitDy=0;" parent="1" edge="1">
          <mxGeometry width="50" height="50" relative="1" as="geometry">
            <mxPoint x="390" y="867.5" as="sourcePoint" />
            <mxPoint x="460" y="872.5" as="targetPoint" />
          </mxGeometry>
        </mxCell>
        <mxCell id="lHBofT9Xxs7Trdr80c8w-65" value="" style="endArrow=classic;html=1;rounded=0;fontSize=13;exitX=1;exitY=0.5;exitDx=0;exitDy=0;" parent="1" edge="1">
          <mxGeometry width="50" height="50" relative="1" as="geometry">
            <mxPoint x="717.5" y="867.5" as="sourcePoint" />
            <mxPoint x="787.5" y="872.5" as="targetPoint" />
          </mxGeometry>
        </mxCell>
        <mxCell id="lHBofT9Xxs7Trdr80c8w-66" value="&#xa;&#xa;&#xa;&#xa;1. CDN Path를 통해 Video_id 찾기&#xa;2. Video_id를 통해 User_id 찾기" style="swimlane;startSize=0;fontSize=13;fillColor=none;dashed=1;" parent="1" vertex="1">
          <mxGeometry x="1010" y="620" width="395" height="90" as="geometry" />
        </mxCell>
        <mxCell id="lHBofT9Xxs7Trdr80c8w-67" value="&#xa;&#xa;&#xa;&#xa;&#xa;1. User_id를 통해 모든 vid 찾기&#xa;2. vid 및 user_id 차단하기" style="swimlane;startSize=0;fontSize=13;fillColor=none;dashed=1;" parent="1" vertex="1">
          <mxGeometry x="1010" y="825" width="395" height="90" as="geometry" />
        </mxCell>
        <mxCell id="NOlfnEjTBb-GQBr9GyWI-3" value="&lt;span style=&quot;font-size: 22px;&quot;&gt;1.&amp;nbsp;&lt;/span&gt;" style="text;html=1;align=center;verticalAlign=middle;resizable=0;points=[];autosize=1;strokeColor=none;fillColor=none;" vertex="1" parent="1">
          <mxGeometry x="160" y="645" width="50" height="40" as="geometry" />
        </mxCell>
        <mxCell id="NOlfnEjTBb-GQBr9GyWI-4" value="&lt;span style=&quot;font-size: 22px;&quot;&gt;2.&lt;/span&gt;" style="text;html=1;align=center;verticalAlign=middle;resizable=0;points=[];autosize=1;strokeColor=none;fillColor=none;" vertex="1" parent="1">
          <mxGeometry x="165" y="850" width="40" height="40" as="geometry" />
        </mxCell>
        <mxCell id="NOlfnEjTBb-GQBr9GyWI-6" value="" style="endArrow=classic;html=1;rounded=0;fontSize=13;exitX=0.5;exitY=1;exitDx=0;exitDy=0;entryX=0.5;entryY=0;entryDx=0;entryDy=0;" edge="1" parent="1" source="lHBofT9Xxs7Trdr80c8w-49" target="lHBofT9Xxs7Trdr80c8w-51">
          <mxGeometry width="50" height="50" relative="1" as="geometry">
            <mxPoint x="727.5" y="877.5" as="sourcePoint" />
            <mxPoint x="797.5" y="882.5" as="targetPoint" />
          </mxGeometry>
        </mxCell>
        <mxCell id="NOlfnEjTBb-GQBr9GyWI-7" value="&lt;font style=&quot;font-size: 13px;&quot;&gt;1h batch&lt;/font&gt;" style="text;html=1;align=center;verticalAlign=middle;resizable=0;points=[];autosize=1;strokeColor=none;fillColor=none;" vertex="1" parent="1">
          <mxGeometry x="628.5" y="329" width="70" height="30" as="geometry" />
        </mxCell>
        <mxCell id="NOlfnEjTBb-GQBr9GyWI-11" value="" style="edgeStyle=orthogonalEdgeStyle;rounded=0;orthogonalLoop=1;jettySize=auto;html=1;fontSize=22;exitX=0.875;exitY=0.5;exitDx=0;exitDy=0;exitPerimeter=0;endArrow=none;" edge="1" parent="1" target="NOlfnEjTBb-GQBr9GyWI-7">
          <mxGeometry relative="1" as="geometry">
            <mxPoint x="605" y="339.5799999999999" as="sourcePoint" />
            <mxPoint x="715" y="339.5799999999999" as="targetPoint" />
          </mxGeometry>
        </mxCell>
      </root>
    </mxGraphModel>
  </diagram>
</mxfile>
